<mxfile host="65bd71144e">
    <diagram id="177BH8seJA3yw3FThY7N" name="Page-1">
        <mxGraphModel dx="933" dy="798" grid="1" gridSize="10" guides="1" tooltips="1" connect="1" arrows="1" fold="1" page="1" pageScale="1" pageWidth="850" pageHeight="1100" math="0" shadow="0">
            <root>
                <mxCell id="0"/>
                <mxCell id="1" parent="0"/>
                <mxCell id="7" style="edgeStyle=none;html=1;entryX=0.5;entryY=0;entryDx=0;entryDy=0;" edge="1" parent="1" source="2" target="5">
                    <mxGeometry relative="1" as="geometry"/>
                </mxCell>
                <mxCell id="2" value="" style="shape=cylinder3;whiteSpace=wrap;html=1;boundedLbl=1;backgroundOutline=1;size=15;direction=south;" vertex="1" parent="1">
                    <mxGeometry x="270" y="120" width="210" height="60" as="geometry"/>
                </mxCell>
                <mxCell id="3" value="" style="shape=image;verticalLabelPosition=bottom;verticalAlign=top;imageAspect=0;image=data:image/png,iVBORw0KGgoAAAANSUhEUgAAAjgAAABZCAMAAAAEnK4SAAAAwFBMVEX/////ZgC4uLi1tbX/XwD/WgD/YgD/XgDo6Oi7u7v/eCD39/fb29v/fzT/5Nn/lV7/wJ//r4//5dn/klj/bhP/8uj/rpL/7eP/9u7/cB//nGr/yrD/2Mv/2Mbv7+/U1NTHx8f/awDDw8P/387/jFL/qIP/t5P/djD/1r/h4eH/+vb/xKj/x6z/tpH/07v/fzn/o3j/hEP/dRP/qHv/jEv/UgD/fjr/pIH/wKn/cgD/nGf/eyj/sIj/pXD/kmP/fUAicEWjAAAUOUlEQVR4nO2de1fiOheHizapCg6I8BbhIAKCWh3E29zkzPn+3+qlQO5754J26GLN/mdm2SZtzWN+eyc7SRT9tb+2turlUa02GAxqtbujqsf9s/k5s/nMuNo+q7Or9a+dLV5n+j/Azs6mjd44y7aoz9PSs82jwp9xvynZD39q54x/4jS8tLAjxXxaUbbL8NLVu6uDQ9kOrmqOgl0SU2Yx6WpX+zThV2lSaQZ+wtKekxiyJCGEDK8nvXZ4lT42fls/ZhgO+zlZFSVn4U9NY/a1yXN4aWFqIw4+VPrIXeBulKOi2eHh6M5SpkcqspEH5Wp2QeWr9CbwE5Z2otSg2RLV+KmRhtfqtC/r76IX4eDU128cbwOO+LL38NLCjpUmHIUVPlIYcINzd2xAw8oe4+icq+1KX5WrfRWrSjwO+4bIAc7qkQntbtGTOWyfwDm8DCo8CALnCMVmVXqEPftUA+dEuar1RxXyT9An5OYEJ28jOt/GfbLZXoETplVaYTs4Axs2efGDGlywFOAsW6m1hStqs30CJ0yrVKWyg1MdObjBsS0JOEvBagRXbbO9AidIqwb+4FQ1mRIxlfLTK6jsnwOHEmHJMvigGlHka3DdFis9ONZhAh2cAK2q6mVxcKoaNceDu6PLpd0NRgo7IDl/DBz61L9d2WzW6z38mE7qpzRO5Ke/3QdXjlvJwek/W0NJrfFDtEpTKhs48lMODwbyuE21diDVA4H758A5N681G49yv0PCYzbUSg1Op0uG1vErHZwArdK9XRyckR0NuaJDMyzfKThLG9dj/ga0FVw7arsBpynU+Cd+V68SV/zAOcbbFbGqURQDpybAgIPuI5k/Yxh51+Dkv0b+Cp/o5uwGnKwvDLsnvc5fzQucw9qIYeD7BkypDu8c4FxK3FzBswuSu2S6ObsHJxoLcuinzV7tBhwPm66/1g+cO6YX3lrFChwzMDBwRgIK1IOSvGejmhKAE435Uz4vJi8rOE2yrt2zx+HN76tVohOxgyP50JbeTLpLp6sM4ESLhD3+Mbh+xEoLTlwJAUd4O37Vc6U6coAjdTi2zkx4yHo9pQAnEi/xWROe+wJOoFbxho7s4IiuxNGXCTdH63LKAc4kZlr1WTMP+wJOoFaxu68c4FwJ78VeoUSYim45wOGz8MlnxVX7Ak7k2cBrE0plB0eEVMAIjWpc0zR0ywFOxp5DfwU/ALa9ASdIq67YzZEdHOG6OH2nO+EfK0F7OcCJntld18EPgG1vwAnSKqFUdnC453KIJE0IE4M5ak0lAeeJz2gFPwC2vQEnJK6SlMoKjqRU7oxk3jupg4AlAeea3fVf8ANg2x9wArRKUiorOEKprtxvLI3lyD8uCTi///Y4ssngBGiVfKcNnJG/UilaJaNbEnB4j/NquyvA9gccf62SlcoGjphJ8FAqKXRXMCsJONzHqQc/ALY9Asdbq5hSrSTFAo4QH688nxoobCUBh90Vv1hu6tz+mL++P/98Pnmqn/XsKyMgcG7Pzt9/Pr+/vjxYx6cBcNKH+dPyuaf16e0Hp2HTDTgtK9AKON5adSDfZwEHcXcxuwSdnHKAk7HJquQBu6U5eX4jSSzWDhLatQwzG+CM64QtPYyTtxNLtqEOTnb//MYevHxs3ZpuNj1bm/Zq95ONddnve3KmmPo+CjjcJXFolaJUNnCE9rhG/1YGK1s5wLllz8EWbs1OSay+aV4leTfXLG9MA6f5StSlhaSCIqqBc1/Ri15bOqz39TLQN22av0s2Kzx5VerCVqL+dlRwPLWKKdWaLws4sLeLGziSUw5w+FxVBezBx9+IQQ1rRMRXUMFpmOUpOUeKKuC0r6GieH+1+X3q+SFd+P1FlTZw/LSKdQybu3BwqkJ6/Falc99J9o7LAQ5/PBiNf03wX3vcgn0dBZw5AYtewEVlcJoXMVSUzLEvKQIcrlVWX1ZVKgs4wjf2zNUAfSIdHHWt/EOifl9B4DT4HCf0p9wFm52/MZyJIYMDc5PnOINFJXDSFtLgKDmFgOOlVapSWcC5CwuqkAIaOJVEiRoW2t9bHD557QFOR6SOAkolNzvN97jIPVSpD4LXE0jgNBJROCayr0RPIGWUwHlkwV6+FEx+aCVZwN9SCDg+WsXG6dg9ODiBQRUydmyAI6PRbunfdxEcjXqAwwZxKgkQjDcENwn93bhNsyzrjO/rohXBNuTgZJslK5Q8NcbLov3FUHSjMfRSApzFupI4ns+Wj017dcnfiWG/HAGnzhY/8L/EhCimTu5q4PholaZUFnCEy+KZjypNbRkfKoyIT06Ni0snJHRAzQ1OnTdkbGKZ8os0WcjP7pwLogAvV4DTXbVV3Lpll7KFKEmA2IqD01nfR37x5zZPxevAf0MIOOPexqbsV9roKaaG7zo4HlqlKZUNHI6Bx4SDXJUdnErS+tVd2SMUytD4tYvZGeRsusDJrnlbEOCPmG/DQo1dnV64ZwTsfsXAuRmvKkjO5Wa+FcsAAVYZONO1UJOefFE4XMkE+hwEHG5s5BiCXZgOjlurdKWygDPiGHgN40RSMpk0kGOCU+E7cJnYKJcNM0YvcnOAc9vinTcBhCp94y1sUtndFIX2e+Lg/JvflGg7jY2FYpg6x8EZrv7RhvK6os+BXGtvcHyWAIsugTU2GgfpSmUBB0mwsZgAR/R4ADgfsDezda3g9KVREmMbudymfEgZ6FUyFvNQ87Ff5EjKjPKF52R2OXX5V5L09MvcIwOnRwoCx6lVulJZwIEwsJsoISr7XHBis/tGwcma01OBDYUcY+n1KHSVYUWM1lXBAYYVhUNuNLEMTmyG3WNrDFgQOC6t0kb/Ihs4WPq583UKBAfoViRwspV12mn6z/3i97sc3sZDs+1z43/d4LgJmzEErsrgQB5wk2c5X+iXJHDAyfU5a3sC0FEQOK7cCkOpcHCkgeNwcIRX9MfAqbS+3azsorUMRRNle5w46cK/Rx5TkVvocvbfuhIgU1kCB17lx71uY3pMAgcckGzyXhAY5y4KHIdWGUrlBY7vPrijnYJTQXxumsTo5pHjt80wxxs8CjDfgGMmnErgQMGatCLHkFcBDhJys6yzCjFDo6LAsWuVqVT7BA5oCXlq4END2ZgZfH3j5NAbowoBDj2BBy2H7LoekwlwII98aT3usZsdUlHg2LXqzqSkGHDEC+0YnIveh7Yb7aF5fgKcGJkc4K6K3oZSjwP3hG2uVWYgWBg4Vq1Scv/WhoJzuRfgVFrzjyz6ZXk8LUMzBDgE0cEZu4Nob8DBQbdA4CHZ0LhUGDhWrQKu7XmPk88fDhtbp2P23eDQb0jtHSY4epfEwQFd49ymPK4yerrCwBGhjXn7HdAb7ZGPI4aYtUJkiCbyOcwDHDiQz41NfesxGQcHGKxe2y0P9owXLw6cGq5VgFLtUTheublg1lr2M3ImKMUTo+z2jxscOKbKbc7AuVH7pDouRBvjnVXyQ79UHDgWrYKuFDMAuANw6HnWYdZOm7PFE5WSfZL6VnL1xcPHQVuIT2dopRk4lqU6rG6zOysOHDyugpRqj0aOjWZIXyTR0qch/cwNjt6dSMa94/iL8nMGjmVfOa5yhvtcIDioVvE8CfmHxUxyfggczFcJBYdtwLk2aF7AaR7g4N2GUDM1IZaBA49Wr6yLqlmB4KBaBf68mLSKD8yOJ/T99H1lpydEz+QOBCeKRE4V3eJIsih1gmNZ4ceHY7TFXBwcPGWGh1WJfqVAcLDcClCpPjORyzcfx2pUDlEzPQ08GJzohae3IMO0pqXj2Y8f07PJZP7KzmHDwUFD6qWL24KfzMB5w1+BJ/ETXQiLBAfRKgaCytMnpo5K4IifBYKjZ9q+qH1OODhiMI2iQYyw9GF+sjpDZH2CIRdLHBzLuozsnaWiq70SA8fyPnzZUKK3f5HgVGFNgjHwSFb32eREfsIHwDGmoTO1+Bbg8LlmS+C8ttv5kCRwXqJFqvAl5tk3Bo4aG23AoaeWV+Hg6NUXCQ6sVbBSfebymCpUIAwcc97nSSm/BTg8AbRCbYM56WJoeFQ+4FjOn834FhlqRMfAsSwEE+Dos6+FggNqFaxUFnDEZNWx39AxL2BZkOcw0w+5/jA4TQ+tSueJZTWnDZyhpYEc4Fg4Hu8GHCiuQpTKawmw50DOHeQU7R4c0WkR5JeZLSje2TjAMa+YD4bBAdJgue0IHEirEKWybTow4uD4xeN8gxz5/hKAc29Jb8ltfKMsRM63KSHayh0UHNvGSg6psm2stCOpgrSKxUi6v2Lb5iQwrBL3S3CWABz+uwTSW5bWk/1hGpPW78X9OG2v5i5mznEcS4+TsW+P/1V+7tHjzHYEjqlVmFLZwIG32MJN9FDSD0sATsRXuUCHg93LS8fJydemPHLinh23gNNho0BwOI5Pq+8qHI8ArcKUygZOYCqXiMblXq0M4PDBoDdzXmkmuKHkSU/6cidyWZzjzhD+KuYcW2bPfuxkADACtApTKuvmkWGzVZegspUBHJGLZ8wOtQU3MZC145YqJPszt5R3G+qUw68NOJYNUCc7mXKITK1Clcq6XW2YkwP6xqUAp4MvAhfDRMk1MM3NdjAxwWFUGE6IML7OQTtEdjODqe0xpdgr+6hn/UrB4OhahSqVFRwxBOiztZJwcWRh2/0A4NKG7B79j5y3LZJ2wfbvAcBhizzxlOYGP15N7ZVYdwIuHtVe2FjQVTQ4mlahSmUFR5pDcGuVuFmhLHDKQW/Zjlp8S3DEtkPaBfaXje24zjZkN8FpM+DwpBq2zEEP2ZkDg09younKxYOjahWuVPZDQIRWXdleY2Xg8F/4JKe2Unf+4UnO3PhITqz+OnniQyUGg6MMnx3vtJyxEc/G0qBkb4ONRy47Qu4bGwuXiwZH1SpcqezgSMeXOeMqoVTKQ4LTKqZpxq35S9sjcEtw+ELuRPV/eQMhWTV8ANcEx7I6eGNtXrmmgixUwyddv/JVDobrXTg4ilYh81S52U/IE3GVyz2+RPyh8ESu4Q03YyZgS3AipOvnWcHI2ije3wGjNRsVw4eOxViM1m0wvxpbyWfdQ6NwcOTcCjjPQrsPBKfm3eWAe9VGO04d5cYH/9UcXpHtA5bK+HMBcFhZNKz6zV9fp5L5PlhYlXJuzG8qHBx5fZVFqRzgSLlZV7YXkTeOVAnbYbK6ZGe861Bi7q69CcWgMgAOG+LBckf5KQDmfl58r1Gkcae7WDvOTdIqi1K5wJG6HOtMJ6pp5QCHywZV+gce98A5VWITYgAc1i1gG6XyYNw8P5bF49jJsjd8Ot+UQV9wMCjXZgNH0ifbqmAHOKLLsYrVFdbhlAScNuxvsGEac5wtt6kYVYZmpFh+H+LjsqEYIEeQece0BZac8b4KSPVygsPeyrrVuA0csb7KplROcKRDWvF8Lum8eh3OcoDDOw81wsFzwiMpFEPAYU4OvHUA3wQQGCHi+bBw8z/yDgdA0hcc+1bjVnCEyliUyglONBJQjBByBof4M0oCDj9a8Zv80z4Pe80m6si75UPg8J1FoR3XxAgRNLTMJRKql3s4oIC6wEmHm8LWowCt4FQ1cJC9llzgVKUajqGbqpJOmbWUBBx4OW6b12t0C+0b+cXB5AmmVdBEp1hbAfVHfHwoNl+6L5CDti10gdNh722ZRHOAI4bkLErlBkcOmJbwGZ1O7UDixnyRkoDThzOjhCpojTS+UN4bBIdvnEWN3Iq62FwZHCHiU7eJPvA85r4R3Ge4wBGnj9qOrbWDo2kVPFHpBkep5/BYQedycCxfBN6jJOB0YLeChz7qFo/ZYj2GRC9aFnAEdnSo4Jg+if2x4aSbsTS5qrhXD9Ke7GCX4QSHj03ZVsvbwVG1Chn79QBH9mGWNx6MBrWjpd0Nro4PlEewgL1avby8PLqr1aLSgMPXONFf8o87vIUp5SkXnQY7RIrOrOAI95nSCb+jM63wb0YPNZkLYqVT+Mbi+IAKgb1bJzh9UfOjQK+pfoAdHFWrkKUKPuCo5CzvZab89OCqNri6Gh0fH7NbjqPSgCP8UXUDrYVoqWT40ru97U2fYrZShkxZEh+SICqd9hHTp2lvdjv78SrNk1B0uV4mpJAmw+6P2fLJkxNpiU6CfI4THKXmk5deXvPihNgPAdFM0SpkVZ0XOGaEBpqO0igqDzhClFR/ZCi9X766QdqQicyj9nD9Xyyz+FyahF0tjlDOnKIUd1CbFfnGVUl5K6gEC4qc4MjnKLF3iqmmew5wqg7/Q77HkXFzeeCFjmo5OI+fC84v4808weGyov3tNbGFeJRMIic4Ud1yup7m+Wg2Hlp+MwRd5ekGB/xbDQNH1ipsUZ0nOPngcDA6OTgTfYL7QwYMmXiCw4dl9DnpmXn67+q2Sh5nOcGJFnDxpSXfrKP+UXqaICUpdjxe5AVOG0AyEBxJYbD1397gRJfB6OTPbGOnC21jccv0NT3BEWHqb+1Cv2U2YEy7K1Tc4ET9U7DPiine+MzgBaSU3Fh22PUAJ0rfjS8KBEdaxeu6xWchQx58h7CzgnX8TTvkb3uLoQO5f7JN9W2nAC/the2+b2yw1J5TZadJSoZsD/+UrstQy0Lf7P5GP7OcJhQ5PEK1tFsh6h8WjcmNdXfdk83X2sCJskVFo1kDh8U36M5HIx4AYcu/q+wGr/3aqkeDkQiqXLYeOcrSL59kYFuM+xvD16msLGX39c12aS7eyfrE9yXkrd/3HJMMLyNZ1p8/5ueOxEsnNK+hct3wwWb1Vo3fLULWu/HkRd/nt/ZdLtnnOh7Qnl5XSMLqTcibCk5tY+imAEfsDjQnosru8N3MOKquhmgGNacNfHfyKoFl6cPXyffvk6+zdKvtSbN2/34x+T5f1vDQDKshS2fTZdHv3xeNWXvrrbxN6zTzT5ov650+jD90MMFf+2t/7a/tt/0f5UnLRm5u1I0AAAAASUVORK5CYII=" vertex="1" parent="1">
                    <mxGeometry x="325" y="139.5" width="100" height="21" as="geometry"/>
                </mxCell>
                <mxCell id="4" value="btg-pactual-order-created" style="text;html=1;strokeColor=none;fillColor=none;align=center;verticalAlign=middle;whiteSpace=wrap;rounded=0;" vertex="1" parent="1">
                    <mxGeometry x="290" y="90" width="170" height="30" as="geometry"/>
                </mxCell>
                <mxCell id="10" style="edgeStyle=none;html=1;entryX=0;entryY=0;entryDx=0;entryDy=27.5;entryPerimeter=0;" edge="1" parent="1" source="5" target="8">
                    <mxGeometry relative="1" as="geometry"/>
                </mxCell>
                <mxCell id="5" value="order-ms" style="shape=hexagon;perimeter=hexagonPerimeter2;whiteSpace=wrap;html=1;fixedSize=1;" vertex="1" parent="1">
                    <mxGeometry x="315" y="300" width="120" height="80" as="geometry"/>
                </mxCell>
                <mxCell id="11" style="edgeStyle=none;html=1;entryX=1;entryY=0.75;entryDx=0;entryDy=0;" edge="1" parent="1" source="8" target="5">
                    <mxGeometry relative="1" as="geometry"/>
                </mxCell>
                <mxCell id="8" value="" style="shape=cylinder3;whiteSpace=wrap;html=1;boundedLbl=1;backgroundOutline=1;size=15;" vertex="1" parent="1">
                    <mxGeometry x="530" y="290" width="60" height="80" as="geometry"/>
                </mxCell>
                <mxCell id="9" value="" style="dashed=0;outlineConnect=0;html=1;align=center;labelPosition=center;verticalLabelPosition=bottom;verticalAlign=top;shape=mxgraph.weblogos.mongodb" vertex="1" parent="1">
                    <mxGeometry x="554.4" y="326.9" width="11.2" height="26.2" as="geometry"/>
                </mxCell>
                <mxCell id="14" style="edgeStyle=none;html=1;" edge="1" parent="1" source="13" target="5">
                    <mxGeometry relative="1" as="geometry"/>
                </mxCell>
                <mxCell id="13" value="Api" style="rounded=0;whiteSpace=wrap;html=1;direction=south;" vertex="1" parent="1">
                    <mxGeometry x="160" y="280" width="60" height="120" as="geometry"/>
                </mxCell>
            </root>
        </mxGraphModel>
    </diagram>
</mxfile>